<svg xmlns="http://www.w3.org/2000/svg" xmlns:xlink="http://www.w3.org/1999/xlink" width="500" zoomAndPan="magnify" viewBox="0 0 375 374.999991" height="500" preserveAspectRatio="xMidYMid meet" version="1.0"><defs><g/><clipPath id="cfff28cee9"><path d="M 167.546875 130.410156 L 172.796875 130.410156 L 172.796875 139.410156 L 167.546875 139.410156 Z M 167.546875 130.410156 " clip-rule="nonzero"/></clipPath><clipPath id="66e628edc1"><path d="M 131.496094 187.035156 L 135.996094 187.035156 L 135.996094 194.535156 L 131.496094 194.535156 Z M 131.496094 187.035156 " clip-rule="nonzero"/></clipPath><clipPath id="4eb3ae1d11"><path d="M 233 164.753906 L 238.246094 164.753906 L 238.246094 173.003906 L 233 173.003906 Z M 233 164.753906 " clip-rule="nonzero"/></clipPath><clipPath id="acffcda494"><path d="M 63.097656 160.640625 L 67.597656 160.640625 L 67.597656 167.390625 L 63.097656 167.390625 Z M 63.097656 160.640625 " clip-rule="nonzero"/></clipPath><clipPath id="5919ac2b69"><path d="M 277.863281 156.527344 L 285.363281 156.527344 L 285.363281 164.777344 L 277.863281 164.777344 Z M 277.863281 156.527344 " clip-rule="nonzero"/></clipPath><clipPath id="0a58be3e97"><path d="M 68 128.527344 L 73.21875 128.527344 L 73.21875 134.527344 L 68 134.527344 Z M 68 128.527344 " clip-rule="nonzero"/></clipPath><clipPath id="94b535ee8b"><path d="M 199.359375 229.847656 L 204.609375 229.847656 L 204.609375 236.597656 L 199.359375 236.597656 Z M 199.359375 229.847656 " clip-rule="nonzero"/></clipPath><clipPath id="9eb6d88f6b"><path d="M 68 167 L 127 167 L 127 233 L 68 233 Z M 68 167 " clip-rule="nonzero"/></clipPath><clipPath id="45d393ff80"><path d="M 129.261719 228.535156 L 72.820312 236.496094 L 63.707031 171.886719 L 120.148438 163.925781 Z M 129.261719 228.535156 " clip-rule="nonzero"/></clipPath><clipPath id="6b3ab25d17"><path d="M 129.261719 228.535156 L 72.820312 236.496094 L 63.707031 171.886719 L 120.148438 163.925781 Z M 129.261719 228.535156 " clip-rule="nonzero"/></clipPath></defs><rect x="-37.5" width="450" fill="#ffffff" y="-37.499999" height="449.999989" fill-opacity="1"/><rect x="-37.5" width="450" fill="#000000" y="-37.499999" height="449.999989" fill-opacity="1"/><g fill="#e6e6e6" fill-opacity="1"><g transform="translate(136.232355, 218.232876)"><g><path d="M 11.5625 -4.125 C 11.5625 -3.070312 11.644531 -2.304688 11.8125 -1.828125 C 11.976562 -1.359375 12.304688 -1.035156 12.796875 -0.859375 C 13.296875 -0.691406 14.085938 -0.609375 15.171875 -0.609375 C 15.273438 -0.609375 15.328125 -0.503906 15.328125 -0.296875 C 15.328125 -0.0976562 15.273438 0 15.171875 0 C 14.054688 0 13.175781 -0.015625 12.53125 -0.046875 L 8.65625 -0.109375 L 4.890625 -0.046875 C 4.210938 -0.015625 3.296875 0 2.140625 0 C 2.066406 0 2.03125 -0.0976562 2.03125 -0.296875 C 2.03125 -0.503906 2.066406 -0.609375 2.140625 -0.609375 C 3.222656 -0.609375 4.019531 -0.691406 4.53125 -0.859375 C 5.039062 -1.035156 5.390625 -1.367188 5.578125 -1.859375 C 5.765625 -2.347656 5.859375 -3.101562 5.859375 -4.125 L 5.859375 -27.703125 C 5.859375 -28.722656 5.765625 -29.46875 5.578125 -29.9375 C 5.390625 -30.414062 5.039062 -30.75 4.53125 -30.9375 C 4.019531 -31.125 3.222656 -31.21875 2.140625 -31.21875 C 2.066406 -31.21875 2.03125 -31.316406 2.03125 -31.515625 C 2.03125 -31.722656 2.066406 -31.828125 2.140625 -31.828125 L 4.890625 -31.78125 C 6.453125 -31.707031 7.707031 -31.671875 8.65625 -31.671875 C 9.707031 -31.671875 11.015625 -31.707031 12.578125 -31.78125 L 15.171875 -31.828125 C 15.273438 -31.828125 15.328125 -31.722656 15.328125 -31.515625 C 15.328125 -31.316406 15.273438 -31.21875 15.171875 -31.21875 C 14.117188 -31.21875 13.335938 -31.113281 12.828125 -30.90625 C 12.316406 -30.707031 11.976562 -30.359375 11.8125 -29.859375 C 11.644531 -29.367188 11.5625 -28.613281 11.5625 -27.59375 Z M 11.5625 -4.125 "/></g></g></g><g fill="#e6e6e6" fill-opacity="1"><g transform="translate(153.642273, 218.232876)"><g><path d="M 36.8125 -31.828125 C 36.882812 -31.828125 36.921875 -31.722656 36.921875 -31.515625 C 36.921875 -31.316406 36.882812 -31.21875 36.8125 -31.21875 C 35.457031 -31.21875 34.390625 -30.679688 33.609375 -29.609375 C 32.828125 -28.535156 32.4375 -27.101562 32.4375 -25.3125 L 32.4375 0.765625 C 32.4375 0.867188 32.359375 0.9375 32.203125 0.96875 C 32.054688 1 31.945312 0.984375 31.875 0.921875 L 8 -26.28125 L 8 -6.46875 C 8 -4.664062 8.367188 -3.238281 9.109375 -2.1875 C 9.859375 -1.132812 10.894531 -0.609375 12.21875 -0.609375 C 12.289062 -0.609375 12.328125 -0.503906 12.328125 -0.296875 C 12.328125 -0.0976562 12.289062 0 12.21875 0 C 11.269531 0 10.539062 -0.015625 10.03125 -0.046875 L 7.28125 -0.109375 L 4.125 -0.046875 C 3.550781 -0.015625 2.71875 0 1.625 0 C 1.53125 0 1.484375 -0.0976562 1.484375 -0.296875 C 1.484375 -0.503906 1.53125 -0.609375 1.625 -0.609375 C 3.125 -0.609375 4.304688 -1.132812 5.171875 -2.1875 C 6.035156 -3.238281 6.46875 -4.664062 6.46875 -6.46875 L 6.46875 -28 C 5.34375 -29.226562 4.378906 -30.070312 3.578125 -30.53125 C 2.785156 -30.988281 1.96875 -31.21875 1.125 -31.21875 C 1.050781 -31.21875 1.015625 -31.316406 1.015625 -31.515625 C 1.015625 -31.722656 1.050781 -31.828125 1.125 -31.828125 L 3.265625 -31.78125 C 3.703125 -31.738281 4.34375 -31.71875 5.1875 -31.71875 L 9.0625 -31.78125 C 9.539062 -31.8125 10.117188 -31.828125 10.796875 -31.828125 C 11.066406 -31.828125 11.269531 -31.757812 11.40625 -31.625 C 11.539062 -31.488281 11.78125 -31.195312 12.125 -30.75 C 12.695312 -29.96875 13.101562 -29.441406 13.34375 -29.171875 L 30.953125 -8.859375 L 30.953125 -25.3125 C 30.953125 -27.144531 30.578125 -28.585938 29.828125 -29.640625 C 29.085938 -30.691406 28.054688 -31.21875 26.734375 -31.21875 C 26.660156 -31.21875 26.625 -31.316406 26.625 -31.515625 C 26.625 -31.722656 26.660156 -31.828125 26.734375 -31.828125 L 28.921875 -31.78125 C 30.003906 -31.707031 30.921875 -31.671875 31.671875 -31.671875 C 32.347656 -31.671875 33.300781 -31.707031 34.53125 -31.78125 Z M 36.8125 -31.828125 "/></g></g></g><g fill="#e6e6e6" fill-opacity="1"><g transform="translate(191.058317, 218.232876)"><g><path d="M 25.25 -8.09375 C 25.25 -8.164062 25.320312 -8.203125 25.46875 -8.203125 C 25.5625 -8.203125 25.648438 -8.175781 25.734375 -8.125 C 25.828125 -8.070312 25.875 -8.03125 25.875 -8 C 25.53125 -5.34375 25.359375 -2.929688 25.359375 -0.765625 C 25.359375 -0.492188 25.304688 -0.296875 25.203125 -0.171875 C 25.097656 -0.0546875 24.894531 0 24.59375 0 L 2.09375 0 C 1.988281 0 1.9375 -0.0976562 1.9375 -0.296875 C 1.9375 -0.503906 1.988281 -0.609375 2.09375 -0.609375 C 3.175781 -0.609375 3.960938 -0.691406 4.453125 -0.859375 C 4.941406 -1.035156 5.269531 -1.367188 5.4375 -1.859375 C 5.613281 -2.347656 5.703125 -3.101562 5.703125 -4.125 L 5.703125 -27.703125 C 5.703125 -28.722656 5.613281 -29.46875 5.4375 -29.9375 C 5.269531 -30.414062 4.929688 -30.75 4.421875 -30.9375 C 3.921875 -31.125 3.144531 -31.21875 2.09375 -31.21875 C 1.988281 -31.21875 1.9375 -31.316406 1.9375 -31.515625 C 1.9375 -31.722656 1.988281 -31.828125 2.09375 -31.828125 L 23.671875 -31.828125 C 24.015625 -31.828125 24.1875 -31.675781 24.1875 -31.375 L 24.296875 -24.59375 C 24.296875 -24.53125 24.203125 -24.476562 24.015625 -24.4375 C 23.828125 -24.40625 23.710938 -24.441406 23.671875 -24.546875 C 23.128906 -26.515625 22.210938 -27.972656 20.921875 -28.921875 C 19.640625 -29.867188 17.945312 -30.34375 15.84375 -30.34375 L 14.3125 -30.34375 C 13.289062 -30.34375 12.539062 -30.125 12.0625 -29.6875 C 11.59375 -29.25 11.359375 -28.570312 11.359375 -27.65625 L 11.359375 -17.265625 L 15.578125 -17.265625 C 17.546875 -17.265625 19.054688 -17.601562 20.109375 -18.28125 C 21.160156 -18.957031 21.6875 -19.90625 21.6875 -21.125 C 21.6875 -21.226562 21.78125 -21.28125 21.96875 -21.28125 C 22.15625 -21.28125 22.25 -21.226562 22.25 -21.125 L 22.203125 -16.546875 L 22.25 -14.109375 C 22.320312 -12.953125 22.359375 -12.035156 22.359375 -11.359375 C 22.359375 -11.285156 22.253906 -11.25 22.046875 -11.25 C 21.847656 -11.25 21.75 -11.285156 21.75 -11.359375 C 21.75 -12.742188 21.210938 -13.835938 20.140625 -14.640625 C 19.066406 -15.441406 17.53125 -15.84375 15.53125 -15.84375 L 11.359375 -15.84375 L 11.359375 -4.328125 C 11.359375 -3.347656 11.539062 -2.617188 11.90625 -2.140625 C 12.28125 -1.660156 12.878906 -1.421875 13.703125 -1.421875 L 15.375 -1.421875 C 18.019531 -1.421875 20.140625 -1.960938 21.734375 -3.046875 C 23.335938 -4.140625 24.507812 -5.820312 25.25 -8.09375 Z M 25.25 -8.09375 "/></g></g></g><g fill="#e6e6e6" fill-opacity="1"><g transform="translate(219.158527, 218.232876)"><g><path d="M 42.421875 -0.609375 C 42.484375 -0.609375 42.515625 -0.503906 42.515625 -0.296875 C 42.515625 -0.0976562 42.484375 0 42.421875 0 C 41.265625 0 40.347656 -0.015625 39.671875 -0.046875 L 35.90625 -0.109375 L 32.078125 -0.046875 C 31.429688 -0.015625 30.550781 0 29.4375 0 C 29.332031 0 29.28125 -0.0976562 29.28125 -0.296875 C 29.28125 -0.503906 29.332031 -0.609375 29.4375 -0.609375 C 30.863281 -0.609375 31.828125 -0.773438 32.328125 -1.109375 C 32.835938 -1.453125 33.09375 -2.171875 33.09375 -3.265625 L 33.046875 -4.125 L 31.984375 -24.953125 L 21.484375 -0.359375 C 21.421875 -0.222656 21.285156 -0.15625 21.078125 -0.15625 C 20.878906 -0.15625 20.742188 -0.222656 20.671875 -0.359375 L 7.796875 -24.84375 L 7.390625 -6.46875 C 7.347656 -4.632812 7.707031 -3.195312 8.46875 -2.15625 C 9.238281 -1.125 10.320312 -0.609375 11.71875 -0.609375 C 11.8125 -0.609375 11.859375 -0.503906 11.859375 -0.296875 C 11.859375 -0.0976562 11.8125 0 11.71875 0 C 10.800781 0 10.085938 -0.015625 9.578125 -0.046875 L 6.765625 -0.109375 L 3.5625 -0.046875 C 3.019531 -0.015625 2.289062 0 1.375 0 C 1.269531 0 1.21875 -0.0976562 1.21875 -0.296875 C 1.21875 -0.503906 1.269531 -0.609375 1.375 -0.609375 C 2.769531 -0.609375 3.875 -1.132812 4.6875 -2.1875 C 5.5 -3.238281 5.921875 -4.664062 5.953125 -6.46875 L 6.421875 -27.546875 L 6.359375 -27.59375 C 5.679688 -28.851562 4.976562 -29.769531 4.25 -30.34375 C 3.519531 -30.925781 2.679688 -31.21875 1.734375 -31.21875 C 1.628906 -31.21875 1.578125 -31.316406 1.578125 -31.515625 C 1.578125 -31.722656 1.628906 -31.828125 1.734375 -31.828125 L 4.125 -31.78125 C 4.601562 -31.738281 5.210938 -31.71875 5.953125 -31.71875 L 8.65625 -31.78125 C 8.957031 -31.8125 9.347656 -31.828125 9.828125 -31.828125 C 10.265625 -31.828125 10.601562 -31.671875 10.84375 -31.359375 C 11.082031 -31.054688 11.523438 -30.328125 12.171875 -29.171875 L 23.265625 -8.34375 L 32.953125 -30.546875 C 33.148438 -31.023438 33.359375 -31.359375 33.578125 -31.546875 C 33.796875 -31.734375 34.09375 -31.828125 34.46875 -31.828125 C 34.78125 -31.828125 35.128906 -31.804688 35.515625 -31.765625 C 35.910156 -31.734375 36.363281 -31.71875 36.875 -31.71875 L 39.875 -31.78125 C 40.34375 -31.8125 41.019531 -31.828125 41.90625 -31.828125 C 42.007812 -31.828125 42.0625 -31.722656 42.0625 -31.515625 C 42.0625 -31.316406 42.007812 -31.21875 41.90625 -31.21875 C 40.3125 -31.21875 39.15625 -30.894531 38.4375 -30.25 C 37.726562 -29.601562 37.410156 -28.601562 37.484375 -27.25 L 38.703125 -4.125 C 38.765625 -3.070312 38.890625 -2.304688 39.078125 -1.828125 C 39.265625 -1.359375 39.601562 -1.035156 40.09375 -0.859375 C 40.59375 -0.691406 41.367188 -0.609375 42.421875 -0.609375 Z M 42.421875 -0.609375 "/></g></g></g><g fill="#e6e6e6" fill-opacity="1"><g transform="translate(262.785119, 218.232876)"><g><path d="M 36.515625 -0.609375 C 36.679688 -0.609375 36.765625 -0.503906 36.765625 -0.296875 C 36.765625 -0.0976562 36.679688 0 36.515625 0 C 35.835938 0 34.785156 -0.0351562 33.359375 -0.109375 C 31.859375 -0.171875 30.785156 -0.203125 30.140625 -0.203125 C 29.296875 -0.203125 28.265625 -0.171875 27.046875 -0.109375 C 25.890625 -0.0351562 24.972656 0 24.296875 0 C 24.160156 0 24.09375 -0.0976562 24.09375 -0.296875 C 24.09375 -0.503906 24.160156 -0.609375 24.296875 -0.609375 C 25.171875 -0.609375 25.800781 -0.703125 26.1875 -0.890625 C 26.582031 -1.078125 26.78125 -1.410156 26.78125 -1.890625 C 26.78125 -2.460938 26.441406 -3.425781 25.765625 -4.78125 L 22.296875 -11.65625 L 9.78125 -11.65625 L 7.796875 -7.234375 C 7.347656 -6.242188 7.125 -5.328125 7.125 -4.484375 C 7.125 -3.253906 7.554688 -2.300781 8.421875 -1.625 C 9.285156 -0.945312 10.453125 -0.609375 11.921875 -0.609375 C 12.085938 -0.609375 12.171875 -0.503906 12.171875 -0.296875 C 12.171875 -0.0976562 12.085938 0 11.921875 0 C 11.304688 0 10.421875 -0.0351562 9.265625 -0.109375 C 7.972656 -0.171875 6.851562 -0.203125 5.90625 -0.203125 C 4.988281 -0.203125 3.882812 -0.171875 2.59375 -0.109375 C 1.4375 -0.0351562 0.503906 0 -0.203125 0 C -0.335938 0 -0.40625 -0.0976562 -0.40625 -0.296875 C -0.40625 -0.503906 -0.335938 -0.609375 -0.203125 -0.609375 C 0.742188 -0.609375 1.539062 -0.800781 2.1875 -1.1875 C 2.832031 -1.582031 3.476562 -2.28125 4.125 -3.28125 C 4.769531 -4.28125 5.535156 -5.765625 6.421875 -7.734375 L 17.46875 -32.03125 C 17.53125 -32.132812 17.679688 -32.1875 17.921875 -32.1875 C 18.191406 -32.1875 18.34375 -32.132812 18.375 -32.03125 L 31.109375 -6.96875 C 32.296875 -4.5625 33.28125 -2.898438 34.0625 -1.984375 C 34.84375 -1.066406 35.660156 -0.609375 36.515625 -0.609375 Z M 10.4375 -13.09375 L 21.546875 -13.09375 L 15.6875 -24.703125 Z M 10.4375 -13.09375 "/></g></g></g><g clip-path="url(#cfff28cee9)"><path fill="#ad844b" d="M 172.890625 134.207031 C 172.835938 134.183594 171.746094 133.84375 171.242188 133.765625 C 170.921875 133.71875 170.808594 133.585938 170.753906 133.265625 C 170.605469 132.386719 170.367188 131.527344 170.253906 130.640625 C 170.242188 130.542969 170.253906 130.417969 170.105469 130.414062 C 169.972656 130.410156 169.957031 130.527344 169.933594 130.628906 C 169.925781 130.65625 169.496094 132.582031 169.433594 133.539062 C 169.425781 133.691406 169.363281 133.753906 169.226562 133.800781 C 168.726562 133.964844 168.230469 134.136719 167.734375 134.3125 C 167.65625 134.339844 167.554688 134.367188 167.554688 134.476562 C 167.550781 134.605469 167.664062 134.617188 167.75 134.644531 C 168.191406 134.777344 168.640625 134.867188 169.101562 134.917969 C 169.398438 134.949219 169.410156 134.964844 169.410156 135.265625 C 169.414062 135.96875 169.832031 138.40625 169.992188 138.914062 C 170.023438 139.003906 170.050781 139.097656 170.164062 139.117188 C 170.265625 139.105469 170.292969 139.023438 170.304688 138.945312 C 170.324219 138.839844 170.695312 135.640625 170.753906 135.273438 C 170.769531 135.183594 170.757812 135.0625 170.871094 135.03125 C 171.023438 134.988281 172.34375 134.648438 172.859375 134.542969 C 172.953125 134.523438 173.066406 134.535156 173.082031 134.410156 C 173.097656 134.273438 172.980469 134.246094 172.886719 134.207031 Z M 172.890625 134.207031 " fill-opacity="1" fill-rule="evenodd"/></g><g clip-path="url(#66e628edc1)"><path fill="#ad844b" d="M 135.96875 190.050781 C 135.601562 189.972656 135.230469 189.9375 134.859375 189.945312 C 134.667969 189.945312 134.59375 189.871094 134.574219 189.691406 C 134.527344 189.300781 134.472656 188.910156 134.417969 188.519531 C 134.367188 188.117188 134.328125 187.714844 134.230469 187.320312 C 134.199219 187.191406 134.15625 187.066406 134 187.050781 C 133.820312 187.035156 133.777344 187.179688 133.730469 187.3125 C 133.714844 187.363281 133.699219 187.414062 133.6875 187.464844 C 133.507812 188.199219 133.285156 188.925781 133.191406 189.675781 C 133.164062 189.886719 133.078125 189.992188 132.867188 190.03125 C 132.476562 190.109375 132.109375 190.257812 131.757812 190.433594 C 131.632812 190.5 131.5 190.570312 131.527344 190.742188 C 131.554688 190.910156 131.703125 190.941406 131.839844 190.96875 C 132.164062 191.03125 132.496094 191.03125 132.828125 191.042969 C 133.339844 191.058594 133.292969 191 133.324219 191.503906 C 133.363281 192.089844 133.421875 192.671875 133.496094 193.25 C 133.539062 193.589844 133.605469 193.925781 133.726562 194.246094 C 133.78125 194.375 133.839844 194.511719 134.011719 194.496094 C 134.1875 194.480469 134.222656 194.335938 134.253906 194.199219 C 134.277344 194.105469 134.292969 194.011719 134.308594 193.917969 C 134.453125 193.128906 134.523438 192.335938 134.609375 191.539062 C 134.644531 191.242188 134.753906 191.066406 135.050781 190.964844 C 135.382812 190.855469 135.695312 190.691406 136.015625 190.542969 C 136.121094 190.492188 136.21875 190.425781 136.226562 190.28125 C 136.214844 190.128906 136.101562 190.078125 135.96875 190.050781 Z M 135.96875 190.050781 " fill-opacity="1" fill-rule="evenodd"/></g><g clip-path="url(#4eb3ae1d11)"><path fill="#ad844b" d="M 238.191406 168.652344 C 238.167969 168.5 238.027344 168.480469 237.90625 168.457031 C 237.472656 168.371094 237.027344 168.335938 236.585938 168.328125 C 236.382812 168.328125 236.316406 168.261719 236.300781 168.066406 C 236.238281 167.421875 236.15625 166.777344 236.085938 166.132812 C 236.046875 165.757812 235.992188 165.382812 235.898438 165.015625 C 235.867188 164.898438 235.835938 164.769531 235.683594 164.757812 C 235.566406 164.765625 235.515625 164.839844 235.484375 164.925781 C 235.433594 165.082031 235.382812 165.238281 235.34375 165.398438 C 235.136719 166.21875 234.988281 167.050781 234.875 167.890625 C 234.835938 168.148438 234.726562 168.269531 234.484375 168.34375 C 234.050781 168.46875 233.625 168.617188 233.21875 168.824219 C 233.109375 168.878906 232.996094 168.945312 233.003906 169.09375 C 233.011719 169.257812 233.148438 169.300781 233.273438 169.335938 C 233.636719 169.445312 234.015625 169.488281 234.390625 169.535156 C 234.820312 169.589844 234.824219 169.585938 234.863281 170.015625 C 234.9375 170.769531 235.027344 171.519531 235.214844 172.253906 C 235.269531 172.476562 235.347656 172.695312 235.453125 172.898438 C 235.519531 173.027344 235.574219 173.191406 235.761719 173.167969 C 236.109375 173.125 236.09375 172.238281 236.128906 172 C 236.222656 171.359375 236.308594 170.714844 236.371094 170.070312 C 236.386719 169.910156 236.449219 169.808594 236.59375 169.726562 C 237.0625 169.453125 237.558594 169.230469 238.003906 168.917969 C 238.097656 168.851562 238.210938 168.785156 238.191406 168.652344 Z M 238.191406 168.652344 " fill-opacity="1" fill-rule="evenodd"/></g><g clip-path="url(#acffcda494)"><path fill="#ad844b" d="M 67.714844 163.886719 C 67.589844 163.839844 67.457031 163.804688 67.414062 163.785156 C 66.65625 163.417969 66.261719 162.617188 65.972656 161.871094 C 65.847656 161.554688 65.78125 160.785156 65.769531 160.753906 C 65.746094 160.6875 65.703125 160.640625 65.632812 160.644531 C 65.558594 160.648438 65.535156 160.707031 65.527344 160.773438 C 65.421875 161.753906 65.050781 162.722656 64.390625 163.464844 C 64.179688 163.703125 63.929688 163.90625 63.632812 164.039062 C 63.53125 164.085938 63.097656 164.230469 63.136719 164.394531 C 63.171875 164.546875 63.515625 164.574219 63.636719 164.613281 C 63.828125 164.675781 64.015625 164.753906 64.183594 164.859375 C 64.828125 165.246094 65.1875 165.933594 65.445312 166.609375 C 65.5625 166.921875 65.667969 167.71875 65.75 167.734375 C 65.816406 167.730469 65.851562 167.691406 65.863281 167.632812 C 66.042969 166.71875 66.160156 165.699219 66.726562 164.929688 C 66.992188 164.5625 67.378906 164.3125 67.8125 164.195312 C 67.886719 164.175781 67.953125 164.15625 67.957031 164.074219 C 67.960938 164 67.84375 163.9375 67.714844 163.886719 Z M 67.714844 163.886719 " fill-opacity="1" fill-rule="evenodd"/></g><g clip-path="url(#5919ac2b69)"><path fill="#ad844b" d="M 284.746094 160 C 284.148438 159.832031 283.546875 159.699219 282.941406 159.558594 C 282.671875 159.496094 282.472656 159.382812 282.394531 159.078125 C 282.277344 158.605469 282.144531 158.140625 282.007812 157.679688 C 281.945312 157.46875 281.894531 157.25 281.8125 157.046875 C 281.730469 156.851562 281.535156 156.53125 281.308594 156.75 C 281.171875 156.886719 281.097656 157.113281 281.039062 157.292969 C 280.964844 157.542969 280.886719 157.792969 280.816406 158.042969 C 280.667969 158.539062 280.527344 159.035156 280.367188 159.527344 C 280.320312 159.675781 280.179688 159.832031 280.039062 159.898438 C 279.667969 160.074219 279.292969 160.238281 278.914062 160.398438 C 278.6875 160.492188 278.457031 160.585938 278.222656 160.675781 C 278.132812 160.710938 278.007812 160.75 277.929688 160.828125 C 277.898438 160.863281 277.875 160.90625 277.871094 160.957031 C 277.863281 161.136719 278.09375 161.273438 278.230469 161.332031 C 278.429688 161.410156 278.640625 161.433594 278.847656 161.480469 C 279.335938 161.578125 279.820312 161.671875 280.3125 161.742188 C 280.546875 161.773438 280.65625 161.828125 280.707031 162.066406 C 280.835938 162.609375 280.96875 163.148438 281.117188 163.6875 C 281.183594 163.933594 281.21875 164.1875 281.339844 164.414062 C 281.496094 164.703125 281.757812 164.753906 281.929688 164.429688 C 282.109375 164.09375 282.164062 163.683594 282.257812 163.316406 C 282.375 162.851562 282.476562 162.378906 282.570312 161.90625 C 282.621094 161.65625 282.722656 161.566406 282.941406 161.484375 C 283.582031 161.242188 284.214844 160.980469 284.835938 160.695312 C 285.234375 160.507812 285.121094 160.101562 284.746094 160 Z M 284.746094 160 " fill-opacity="1" fill-rule="nonzero"/></g><g clip-path="url(#0a58be3e97)"><path fill="#ad844b" d="M 73.035156 131.316406 C 72.886719 131.25 71.863281 131.121094 71.574219 131.074219 C 71.46875 131.058594 71.367188 131.042969 71.265625 131.027344 C 71.183594 131.011719 71.144531 130.976562 71.136719 130.894531 C 71.128906 130.8125 70.972656 128.773438 70.941406 128.609375 C 70.933594 128.574219 70.921875 128.539062 70.878906 128.535156 C 70.835938 128.527344 70.808594 128.554688 70.792969 128.59375 C 70.761719 128.671875 70.304688 130.492188 70.273438 130.898438 C 70.269531 130.976562 70.21875 130.984375 70.164062 130.996094 C 69.558594 131.113281 68.199219 131.457031 68.121094 131.492188 C 68.027344 131.535156 67.96875 131.628906 68.113281 131.660156 C 68.128906 131.664062 69.6875 131.808594 70.128906 131.839844 C 70.199219 131.847656 70.230469 131.875 70.234375 131.941406 C 70.242188 132.027344 70.445312 134.378906 70.5 134.632812 C 70.515625 134.699219 70.535156 134.761719 70.609375 134.761719 C 70.734375 134.761719 70.796875 133.929688 70.828125 133.730469 C 70.898438 133.273438 70.964844 132.8125 71.03125 132.355469 C 71.054688 132.199219 71.078125 132.042969 71.105469 131.890625 C 71.121094 131.816406 71.144531 131.777344 71.222656 131.765625 C 71.726562 131.679688 73.101562 131.503906 73.097656 131.375 C 73.097656 131.351562 73.074219 131.335938 73.035156 131.316406 Z M 73.035156 131.316406 " fill-opacity="1" fill-rule="evenodd"/></g><g clip-path="url(#94b535ee8b)"><path fill="#ad844b" d="M 204.742188 232.683594 C 204.128906 232.457031 203.453125 232.445312 202.816406 232.292969 C 202.742188 232.277344 202.664062 232.253906 202.609375 232.199219 C 202.546875 232.144531 202.523438 232.058594 202.503906 231.980469 C 202.359375 231.421875 202.230469 230.457031 202.113281 229.894531 C 202.109375 229.867188 202.09375 229.855469 202.066406 229.851562 C 202.039062 229.851562 202.023438 229.867188 202.015625 229.890625 L 201.5 232.425781 C 201.496094 232.441406 201.484375 232.453125 201.46875 232.460938 C 200.765625 232.75 200.039062 233.042969 199.386719 233.441406 C 199.367188 233.453125 199.359375 233.472656 199.363281 233.496094 C 199.367188 233.515625 199.382812 233.53125 199.40625 233.535156 L 201.550781 233.824219 C 201.617188 233.832031 201.691406 233.84375 201.738281 233.894531 C 201.777344 233.929688 201.792969 233.984375 201.804688 234.035156 L 202.339844 236.46875 C 202.347656 236.496094 202.363281 236.507812 202.390625 236.503906 C 202.417969 236.503906 202.433594 236.488281 202.4375 236.460938 C 202.550781 235.65625 202.722656 234.40625 202.957031 233.628906 C 202.984375 233.53125 203.015625 233.433594 203.085938 233.363281 C 203.152344 233.300781 203.242188 233.269531 203.328125 233.242188 L 204.738281 232.777344 C 204.761719 232.769531 204.773438 232.753906 204.773438 232.730469 C 204.773438 232.707031 204.765625 232.691406 204.742188 232.683594 Z M 204.742188 232.683594 " fill-opacity="1" fill-rule="nonzero"/></g><g clip-path="url(#9eb6d88f6b)"><g clip-path="url(#45d393ff80)"><g clip-path="url(#6b3ab25d17)"><path fill="#fee140" d="M 96.035156 167.597656 C 105.523438 166.261719 114.664062 169.242188 121.492188 174.992188 C 117.511719 173.375 113.070312 172.78125 108.453125 173.433594 C 94.519531 175.398438 84.828125 188.273438 86.792969 202.207031 C 88.746094 216.054688 101.625 225.746094 115.554688 223.78125 C 119.488281 223.226562 123.042969 221.855469 126.148438 219.757812 C 121.132812 226.21875 113.75 230.75 105.117188 231.96875 C 87.335938 234.476562 70.851562 222.070312 68.355469 204.371094 C 65.847656 186.59375 78.253906 170.109375 96.035156 167.597656 " fill-opacity="1" fill-rule="nonzero"/></g></g></g><g fill="#e6e6e6" fill-opacity="1"><g transform="translate(64.438166, 153.419569)"><g><path d="M 37.28125 -0.609375 C 37.375 -0.609375 37.421875 -0.503906 37.421875 -0.296875 C 37.421875 -0.0976562 37.375 0 37.28125 0 C 36.09375 0 35.140625 -0.015625 34.421875 -0.046875 L 30.5 -0.109375 L 25.921875 -0.046875 C 25.304688 -0.015625 24.472656 0 23.421875 0 C 23.316406 0 23.265625 -0.0976562 23.265625 -0.296875 C 23.265625 -0.503906 23.316406 -0.609375 23.421875 -0.609375 C 24.679688 -0.609375 25.597656 -0.691406 26.171875 -0.859375 C 26.753906 -1.035156 27.144531 -1.359375 27.34375 -1.828125 C 27.550781 -2.304688 27.65625 -3.070312 27.65625 -4.125 L 27.65625 -15.84375 L 11.203125 -15.84375 L 11.203125 -4.125 C 11.203125 -3.101562 11.300781 -2.347656 11.5 -1.859375 C 11.707031 -1.367188 12.097656 -1.035156 12.671875 -0.859375 C 13.253906 -0.691406 14.171875 -0.609375 15.421875 -0.609375 C 15.492188 -0.609375 15.53125 -0.503906 15.53125 -0.296875 C 15.53125 -0.0976562 15.492188 0 15.421875 0 C 14.234375 0 13.285156 -0.015625 12.578125 -0.046875 L 8.140625 -0.109375 L 4.328125 -0.046875 C 3.648438 -0.015625 2.71875 0 1.53125 0 C 1.457031 0 1.421875 -0.0976562 1.421875 -0.296875 C 1.421875 -0.503906 1.457031 -0.609375 1.53125 -0.609375 C 2.71875 -0.609375 3.582031 -0.691406 4.125 -0.859375 C 4.664062 -1.035156 5.035156 -1.367188 5.234375 -1.859375 C 5.441406 -2.347656 5.546875 -3.101562 5.546875 -4.125 L 5.546875 -27.703125 C 5.546875 -28.722656 5.441406 -29.46875 5.234375 -29.9375 C 5.035156 -30.414062 4.671875 -30.75 4.140625 -30.9375 C 3.617188 -31.125 2.78125 -31.21875 1.625 -31.21875 C 1.53125 -31.21875 1.484375 -31.316406 1.484375 -31.515625 C 1.484375 -31.722656 1.53125 -31.828125 1.625 -31.828125 L 4.375 -31.78125 C 5.9375 -31.707031 7.191406 -31.671875 8.140625 -31.671875 C 9.429688 -31.671875 10.925781 -31.707031 12.625 -31.78125 L 15.421875 -31.828125 C 15.492188 -31.828125 15.53125 -31.722656 15.53125 -31.515625 C 15.53125 -31.316406 15.492188 -31.21875 15.421875 -31.21875 C 14.203125 -31.21875 13.300781 -31.113281 12.71875 -30.90625 C 12.144531 -30.707031 11.75 -30.359375 11.53125 -29.859375 C 11.3125 -29.367188 11.203125 -28.613281 11.203125 -27.59375 L 11.203125 -17.265625 L 27.65625 -17.265625 L 27.65625 -27.59375 C 27.65625 -28.613281 27.550781 -29.367188 27.34375 -29.859375 C 27.144531 -30.359375 26.753906 -30.707031 26.171875 -30.90625 C 25.597656 -31.113281 24.679688 -31.21875 23.421875 -31.21875 C 23.316406 -31.21875 23.265625 -31.316406 23.265625 -31.515625 C 23.265625 -31.722656 23.316406 -31.828125 23.421875 -31.828125 L 25.921875 -31.78125 C 27.617188 -31.707031 29.144531 -31.671875 30.5 -31.671875 C 31.414062 -31.671875 32.722656 -31.707031 34.421875 -31.78125 L 37.28125 -31.828125 C 37.375 -31.828125 37.421875 -31.722656 37.421875 -31.515625 C 37.421875 -31.316406 37.375 -31.21875 37.28125 -31.21875 C 36.125 -31.21875 35.265625 -31.125 34.703125 -30.9375 C 34.140625 -30.75 33.765625 -30.414062 33.578125 -29.9375 C 33.390625 -29.46875 33.296875 -28.722656 33.296875 -27.703125 L 33.296875 -4.125 C 33.296875 -3.101562 33.390625 -2.347656 33.578125 -1.859375 C 33.765625 -1.367188 34.128906 -1.035156 34.671875 -0.859375 C 35.222656 -0.691406 36.09375 -0.609375 37.28125 -0.609375 Z M 37.28125 -0.609375 "/></g></g></g><g fill="#e6e6e6" fill-opacity="1"><g transform="translate(103.333588, 153.419569)"><g><path d="M 36.515625 -0.609375 C 36.679688 -0.609375 36.765625 -0.503906 36.765625 -0.296875 C 36.765625 -0.0976562 36.679688 0 36.515625 0 C 35.835938 0 34.785156 -0.0351562 33.359375 -0.109375 C 31.859375 -0.171875 30.785156 -0.203125 30.140625 -0.203125 C 29.296875 -0.203125 28.265625 -0.171875 27.046875 -0.109375 C 25.890625 -0.0351562 24.972656 0 24.296875 0 C 24.160156 0 24.09375 -0.0976562 24.09375 -0.296875 C 24.09375 -0.503906 24.160156 -0.609375 24.296875 -0.609375 C 25.171875 -0.609375 25.800781 -0.703125 26.1875 -0.890625 C 26.582031 -1.078125 26.78125 -1.410156 26.78125 -1.890625 C 26.78125 -2.460938 26.441406 -3.425781 25.765625 -4.78125 L 22.296875 -11.65625 L 9.78125 -11.65625 L 7.796875 -7.234375 C 7.347656 -6.242188 7.125 -5.328125 7.125 -4.484375 C 7.125 -3.253906 7.554688 -2.300781 8.421875 -1.625 C 9.285156 -0.945312 10.453125 -0.609375 11.921875 -0.609375 C 12.085938 -0.609375 12.171875 -0.503906 12.171875 -0.296875 C 12.171875 -0.0976562 12.085938 0 11.921875 0 C 11.304688 0 10.421875 -0.0351562 9.265625 -0.109375 C 7.972656 -0.171875 6.851562 -0.203125 5.90625 -0.203125 C 4.988281 -0.203125 3.882812 -0.171875 2.59375 -0.109375 C 1.4375 -0.0351562 0.503906 0 -0.203125 0 C -0.335938 0 -0.40625 -0.0976562 -0.40625 -0.296875 C -0.40625 -0.503906 -0.335938 -0.609375 -0.203125 -0.609375 C 0.742188 -0.609375 1.539062 -0.800781 2.1875 -1.1875 C 2.832031 -1.582031 3.476562 -2.28125 4.125 -3.28125 C 4.769531 -4.28125 5.535156 -5.765625 6.421875 -7.734375 L 17.46875 -32.03125 C 17.53125 -32.132812 17.679688 -32.1875 17.921875 -32.1875 C 18.191406 -32.1875 18.34375 -32.132812 18.375 -32.03125 L 31.109375 -6.96875 C 32.296875 -4.5625 33.28125 -2.898438 34.0625 -1.984375 C 34.84375 -1.066406 35.660156 -0.609375 36.515625 -0.609375 Z M 10.4375 -13.09375 L 21.546875 -13.09375 L 15.6875 -24.703125 Z M 10.4375 -13.09375 "/></g></g></g><g fill="#e6e6e6" fill-opacity="1"><g transform="translate(139.785319, 153.419569)"><g><path d="M 10.84375 -4.328125 C 10.84375 -3.441406 10.910156 -2.800781 11.046875 -2.40625 C 11.179688 -2.019531 11.441406 -1.757812 11.828125 -1.625 C 12.222656 -1.488281 12.863281 -1.421875 13.75 -1.421875 L 15.484375 -1.421875 C 18.128906 -1.421875 20.414062 -2.125 22.34375 -3.53125 C 24.28125 -4.945312 25.570312 -6.859375 26.21875 -9.265625 C 26.21875 -9.335938 26.285156 -9.375 26.421875 -9.375 C 26.492188 -9.375 26.570312 -9.347656 26.65625 -9.296875 C 26.738281 -9.242188 26.78125 -9.203125 26.78125 -9.171875 C 26.476562 -5.804688 26.328125 -3.003906 26.328125 -0.765625 C 26.328125 -0.492188 26.265625 -0.296875 26.140625 -0.171875 C 26.023438 -0.0546875 25.832031 0 25.5625 0 L 1.53125 0 C 1.457031 0 1.421875 -0.0976562 1.421875 -0.296875 C 1.421875 -0.503906 1.457031 -0.609375 1.53125 -0.609375 C 2.613281 -0.609375 3.398438 -0.691406 3.890625 -0.859375 C 4.390625 -1.035156 4.726562 -1.367188 4.90625 -1.859375 C 5.09375 -2.347656 5.1875 -3.101562 5.1875 -4.125 L 5.1875 -27.703125 C 5.1875 -28.722656 5.09375 -29.46875 4.90625 -29.9375 C 4.726562 -30.414062 4.382812 -30.75 3.875 -30.9375 C 3.363281 -31.125 2.582031 -31.21875 1.53125 -31.21875 C 1.457031 -31.21875 1.421875 -31.316406 1.421875 -31.515625 C 1.421875 -31.722656 1.457031 -31.828125 1.53125 -31.828125 L 4.125 -31.78125 C 5.6875 -31.707031 6.976562 -31.671875 8 -31.671875 C 9.007812 -31.671875 10.296875 -31.707031 11.859375 -31.78125 L 14.46875 -31.828125 C 14.5625 -31.828125 14.609375 -31.722656 14.609375 -31.515625 C 14.609375 -31.316406 14.5625 -31.21875 14.46875 -31.21875 C 13.414062 -31.21875 12.632812 -31.125 12.125 -30.9375 C 11.613281 -30.75 11.269531 -30.40625 11.09375 -29.90625 C 10.925781 -29.414062 10.84375 -28.664062 10.84375 -27.65625 Z M 10.84375 -4.328125 "/></g></g></g><g fill="#f5f5f5" fill-opacity="1"><g transform="translate(55.696696, 351.954782)"><g><path d="M 10.515625 -9.5 L 10.515625 0 L 9.0625 0 L 9.0625 -5.296875 L 5.84375 -0.75 L 5.8125 -0.75 L 2.6875 -5.09375 L 2.6875 0 L 1.265625 0 L 1.265625 -9.5 L 5.84375 -3.015625 L 10.484375 -9.5 Z M 10.515625 -9.5 "/></g></g></g><g fill="#f5f5f5" fill-opacity="1"><g transform="translate(77.5424, 351.954782)"><g><path d="M 2.734375 -9.171875 L 2.734375 0 L 1.265625 0 L 1.265625 -9.171875 Z M 2.734375 -9.171875 "/></g></g></g><g fill="#f5f5f5" fill-opacity="1"><g transform="translate(91.610099, 351.954782)"><g><path d="M 1.265625 -9.171875 L 3.859375 -9.171875 C 5.015625 -9.171875 5.96875 -8.941406 6.71875 -8.484375 C 7.46875 -8.035156 8.015625 -7.453125 8.359375 -6.734375 C 8.703125 -6.023438 8.875 -5.265625 8.875 -4.453125 C 8.875 -3.566406 8.664062 -2.785156 8.25 -2.109375 C 7.832031 -1.429688 7.273438 -0.910156 6.578125 -0.546875 C 5.890625 -0.179688 5.132812 0 4.3125 0 L 1.265625 0 Z M 4.046875 -1.40625 C 4.703125 -1.40625 5.28125 -1.523438 5.78125 -1.765625 C 6.28125 -2.015625 6.671875 -2.375 6.953125 -2.84375 C 7.234375 -3.320312 7.375 -3.894531 7.375 -4.5625 C 7.375 -5.28125 7.21875 -5.878906 6.90625 -6.359375 C 6.601562 -6.847656 6.210938 -7.203125 5.734375 -7.421875 C 5.265625 -7.648438 4.773438 -7.765625 4.265625 -7.765625 L 2.734375 -7.765625 L 2.734375 -1.40625 Z M 4.046875 -1.40625 "/></g></g></g><g fill="#f5f5f5" fill-opacity="1"><g transform="translate(111.265881, 351.954782)"><g><path d="M 9.359375 -9.171875 L 9.359375 0.328125 L 9.3125 0.328125 L 2.703125 -6.078125 L 2.75 0 L 1.265625 0 L 1.265625 -9.484375 L 1.328125 -9.484375 L 7.921875 -3 L 7.890625 -9.171875 Z M 9.359375 -9.171875 "/></g></g></g><g fill="#f5f5f5" fill-opacity="1"><g transform="translate(131.966276, 351.954782)"><g><path d="M 2.734375 -9.171875 L 2.734375 0 L 1.265625 0 L 1.265625 -9.171875 Z M 2.734375 -9.171875 "/></g></g></g><g fill="#f5f5f5" fill-opacity="1"><g transform="translate(146.033979, 351.954782)"><g><path d="M 8.546875 -0.84375 C 8.296875 -0.601562 7.859375 -0.382812 7.234375 -0.1875 C 6.609375 0 6.035156 0.09375 5.515625 0.09375 C 4.546875 0.09375 3.695312 -0.0976562 2.96875 -0.484375 C 2.238281 -0.867188 1.675781 -1.394531 1.28125 -2.0625 C 0.882812 -2.738281 0.6875 -3.507812 0.6875 -4.375 C 0.6875 -5.40625 0.898438 -6.289062 1.328125 -7.03125 C 1.753906 -7.769531 2.328125 -8.328125 3.046875 -8.703125 C 3.765625 -9.078125 4.550781 -9.265625 5.40625 -9.265625 C 5.9375 -9.265625 6.4375 -9.203125 6.90625 -9.078125 C 7.382812 -8.960938 7.800781 -8.800781 8.15625 -8.59375 L 7.6875 -7.234375 C 7.425781 -7.390625 7.085938 -7.519531 6.671875 -7.625 C 6.265625 -7.738281 5.90625 -7.796875 5.59375 -7.796875 C 4.539062 -7.796875 3.710938 -7.503906 3.109375 -6.921875 C 2.503906 -6.347656 2.203125 -5.539062 2.203125 -4.5 C 2.203125 -3.875 2.34375 -3.320312 2.625 -2.84375 C 2.90625 -2.375 3.300781 -2.007812 3.8125 -1.75 C 4.320312 -1.488281 4.898438 -1.359375 5.546875 -1.359375 C 5.847656 -1.359375 6.128906 -1.382812 6.390625 -1.4375 C 6.660156 -1.5 6.890625 -1.578125 7.078125 -1.671875 L 7.078125 -3.203125 L 5.359375 -3.203125 L 5.359375 -4.609375 L 8.546875 -4.609375 Z M 8.546875 -0.84375 "/></g></g></g><g fill="#f5f5f5" fill-opacity="1"><g transform="translate(165.626834, 351.954782)"><g><path d="M 8.71875 0 L 7.234375 0 L 7.234375 -3.90625 L 2.734375 -3.90625 L 2.734375 0 L 1.265625 0 L 1.265625 -9.171875 L 2.734375 -9.171875 L 2.734375 -5.296875 L 7.234375 -5.296875 L 7.234375 -9.171875 L 8.71875 -9.171875 Z M 8.71875 0 "/></g></g></g><g fill="#f5f5f5" fill-opacity="1"><g transform="translate(185.672765, 351.954782)"><g><path d="M 6.734375 -9.171875 L 6.734375 -7.75 L 4.375 -7.75 L 4.375 0 L 2.90625 0 L 2.90625 -7.75 L 0.609375 -7.75 L 0.609375 -9.171875 Z M 6.734375 -9.171875 "/></g></g></g><g fill="#f5f5f5" fill-opacity="1"><g transform="translate(203.088273, 351.954782)"><g/></g></g><g fill="#f5f5f5" fill-opacity="1"><g transform="translate(217.193733, 351.954782)"><g><path d="M 6.0625 -7.296875 C 5.28125 -7.710938 4.582031 -7.921875 3.96875 -7.921875 C 3.507812 -7.921875 3.148438 -7.816406 2.890625 -7.609375 C 2.628906 -7.410156 2.5 -7.132812 2.5 -6.78125 C 2.5 -6.4375 2.660156 -6.148438 2.984375 -5.921875 C 3.316406 -5.691406 3.78125 -5.460938 4.375 -5.234375 C 4.832031 -5.078125 5.222656 -4.894531 5.546875 -4.6875 C 5.867188 -4.476562 6.132812 -4.195312 6.34375 -3.84375 C 6.550781 -3.5 6.65625 -3.054688 6.65625 -2.515625 C 6.65625 -2.023438 6.535156 -1.582031 6.296875 -1.1875 C 6.054688 -0.800781 5.703125 -0.488281 5.234375 -0.25 C 4.773438 -0.0195312 4.234375 0.09375 3.609375 0.09375 C 3.046875 0.09375 2.492188 0.0078125 1.953125 -0.15625 C 1.421875 -0.332031 0.945312 -0.570312 0.53125 -0.875 L 1.1875 -2.015625 C 1.5 -1.773438 1.863281 -1.578125 2.28125 -1.421875 C 2.707031 -1.273438 3.101562 -1.203125 3.46875 -1.203125 C 3.90625 -1.203125 4.289062 -1.304688 4.625 -1.515625 C 4.96875 -1.734375 5.140625 -2.0625 5.140625 -2.5 C 5.140625 -2.851562 5 -3.144531 4.71875 -3.375 C 4.4375 -3.613281 4.039062 -3.832031 3.53125 -4.03125 C 3.019531 -4.21875 2.585938 -4.40625 2.234375 -4.59375 C 1.890625 -4.789062 1.59375 -5.054688 1.34375 -5.390625 C 1.101562 -5.734375 0.984375 -6.160156 0.984375 -6.671875 C 0.984375 -7.421875 1.234375 -8.023438 1.734375 -8.484375 C 2.242188 -8.941406 2.914062 -9.1875 3.75 -9.21875 C 4.351562 -9.21875 4.882812 -9.144531 5.34375 -9 C 5.800781 -8.863281 6.226562 -8.671875 6.625 -8.421875 Z M 6.0625 -7.296875 "/></g></g></g><g fill="#f5f5f5" fill-opacity="1"><g transform="translate(234.596659, 351.954782)"><g><path d="M 8.0625 -0.71875 C 7.789062 -0.519531 7.414062 -0.332031 6.9375 -0.15625 C 6.46875 0.0078125 5.953125 0.09375 5.390625 0.09375 C 4.441406 0.09375 3.613281 -0.109375 2.90625 -0.515625 C 2.195312 -0.929688 1.648438 -1.488281 1.265625 -2.1875 C 0.878906 -2.894531 0.6875 -3.671875 0.6875 -4.515625 C 0.6875 -5.421875 0.878906 -6.234375 1.265625 -6.953125 C 1.648438 -7.679688 2.179688 -8.25 2.859375 -8.65625 C 3.546875 -9.0625 4.328125 -9.265625 5.203125 -9.265625 C 5.734375 -9.265625 6.226562 -9.191406 6.6875 -9.046875 C 7.144531 -8.910156 7.550781 -8.734375 7.90625 -8.515625 L 7.328125 -7.140625 C 6.648438 -7.617188 5.957031 -7.859375 5.25 -7.859375 C 4.71875 -7.859375 4.21875 -7.710938 3.75 -7.421875 C 3.28125 -7.128906 2.90625 -6.734375 2.625 -6.234375 C 2.351562 -5.734375 2.21875 -5.1875 2.21875 -4.59375 C 2.21875 -3.96875 2.34375 -3.40625 2.59375 -2.90625 C 2.851562 -2.40625 3.21875 -2.015625 3.6875 -1.734375 C 4.164062 -1.453125 4.71875 -1.3125 5.34375 -1.3125 C 5.78125 -1.3125 6.175781 -1.378906 6.53125 -1.515625 C 6.894531 -1.648438 7.195312 -1.820312 7.4375 -2.03125 Z M 8.0625 -0.71875 "/></g></g></g><g fill="#f5f5f5" fill-opacity="1"><g transform="translate(253.421768, 351.954782)"><g><path d="M 6.265625 0 L 4.203125 -3.1875 L 2.734375 -3.1875 L 2.734375 0 L 1.265625 0 L 1.265625 -9.171875 L 3.84375 -9.171875 C 4.863281 -9.171875 5.679688 -8.910156 6.296875 -8.390625 C 6.921875 -7.867188 7.234375 -7.144531 7.234375 -6.21875 C 7.234375 -5.65625 7.113281 -5.128906 6.875 -4.640625 C 6.632812 -4.160156 6.257812 -3.789062 5.75 -3.53125 L 7.96875 0 Z M 2.734375 -4.59375 L 4.046875 -4.59375 C 4.628906 -4.59375 5.050781 -4.753906 5.3125 -5.078125 C 5.582031 -5.398438 5.71875 -5.765625 5.71875 -6.171875 C 5.71875 -6.410156 5.664062 -6.644531 5.5625 -6.875 C 5.46875 -7.113281 5.296875 -7.316406 5.046875 -7.484375 C 4.804688 -7.660156 4.488281 -7.75 4.09375 -7.75 L 2.734375 -7.75 Z M 2.734375 -4.59375 "/></g></g></g><g fill="#f5f5f5" fill-opacity="1"><g transform="translate(271.932237, 351.954782)"><g><path d="M 7.34375 -9.171875 L 7.34375 -7.75 L 2.734375 -7.75 L 2.734375 -5.3125 L 6.84375 -5.3125 L 6.84375 -3.90625 L 2.734375 -3.90625 L 2.734375 -1.40625 L 7.515625 -1.40625 L 7.515625 0 L 1.265625 0 L 1.265625 -9.171875 Z M 7.34375 -9.171875 "/></g></g></g><g fill="#f5f5f5" fill-opacity="1"><g transform="translate(290.291679, 351.954782)"><g><path d="M 7.34375 -9.171875 L 7.34375 -7.75 L 2.734375 -7.75 L 2.734375 -5.3125 L 6.84375 -5.3125 L 6.84375 -3.90625 L 2.734375 -3.90625 L 2.734375 -1.40625 L 7.515625 -1.40625 L 7.515625 0 L 1.265625 0 L 1.265625 -9.171875 Z M 7.34375 -9.171875 "/></g></g></g><g fill="#f5f5f5" fill-opacity="1"><g transform="translate(308.651121, 351.954782)"><g><path d="M 9.359375 -9.171875 L 9.359375 0.328125 L 9.3125 0.328125 L 2.703125 -6.078125 L 2.75 0 L 1.265625 0 L 1.265625 -9.484375 L 1.328125 -9.484375 L 7.921875 -3 L 7.890625 -9.171875 Z M 9.359375 -9.171875 "/></g></g></g></svg>